<svg xmlns="http://www.w3.org/2000/svg" width="344" height="36" fill="none" viewBox="0 0 344 36"><path fill="#fff" d="M26.334 29.8032L27.5639 30.6619L27.834 30.275V29.8032H26.334ZM21.7856 33.2969L22.3354 34.6925L22.3409 34.6903L21.7856 33.2969ZM8.07471 32.6157L7.29478 33.897L7.30159 33.9011L8.07471 32.6157ZM3.37256 27.3862L2.02397 28.043L2.02744 28.0501L3.37256 27.3862ZM1.68066 19.542H0.180664V19.5494L0.180737 19.5568L1.68066 19.542ZM5.04248 5.54541L3.90003 4.57338L3.89692 4.57706L5.04248 5.54541ZM22.5986 4.13916L21.6327 5.28675L21.6375 5.29081L22.5986 4.13916ZM26.334 11.3901V12.8901H28.0669L27.8185 11.1751L26.334 11.3901ZM22.1152 11.3901L20.6408 11.6656L20.8696 12.8901H22.1152V11.3901ZM8.11865 8.02832L6.91017 7.13973L6.90904 7.14127L8.11865 8.02832ZM5.92139 16.6416L4.42139 16.6358V16.6416H5.92139ZM8.38232 27.8257L7.19521 28.7426L7.1983 28.7466L8.38232 27.8257ZM22.1372 28.6826L23.2357 29.704L23.6372 29.2722V28.6826H22.1372ZM22.1372 21.4976H23.6372V19.9976H22.1372V21.4976ZM14.7324 21.4976H13.2324V22.9976H14.7324V21.4976ZM14.7324 18.0698V16.5698H13.2324V18.0698H14.7324ZM26.334 18.0698H27.834V16.5698H26.334V18.0698ZM25.104 28.9446C24.2057 30.2315 22.9367 31.2235 21.2304 31.9034L22.3409 34.6903C24.5311 33.8175 26.2943 32.4804 27.5639 30.6619L25.104 28.9446ZM21.2359 31.9013C19.5139 32.5796 17.4517 32.9395 15.0181 32.9395V35.9395C17.7407 35.9395 20.1902 35.5376 22.3354 34.6925L21.2359 31.9013ZM15.0181 32.9395C12.6535 32.9395 10.6118 32.3912 8.84782 31.3303L7.30159 33.9011C9.5806 35.2718 12.1678 35.9395 15.0181 35.9395V32.9395ZM8.85463 31.3344C7.09186 30.2614 5.71327 28.7398 4.71767 26.7224L2.02744 28.0501C3.25841 30.5444 5.01458 32.5091 7.29479 33.897L8.85463 31.3344ZM4.72113 26.7295C3.73637 24.7074 3.2081 22.3191 3.18059 19.5272L0.180737 19.5568C0.211825 22.7122 0.811478 25.5533 2.02399 28.043L4.72113 26.7295ZM3.18066 19.542V16.7515H0.180664V19.542H3.18066ZM3.18066 16.7515C3.18066 12.1499 4.25072 8.80562 6.18804 6.51376L3.89692 4.57706C1.35182 7.58794 0.180664 11.7144 0.180664 16.7515H3.18066ZM6.18492 6.51743C8.1062 4.2593 10.8195 3.06836 14.5347 3.06836V0.0683594C10.1053 0.0683594 6.49048 1.52878 3.90004 4.57339L6.18492 6.51743ZM14.5347 3.06836C17.6138 3.06836 19.9303 3.85379 21.6327 5.28674L23.5646 2.99158C21.1947 0.996799 18.1353 0.0683594 14.5347 0.0683594V3.06836ZM21.6375 5.29081C23.3364 6.70858 24.4375 8.76143 24.8495 11.6052L27.8185 11.1751C27.3222 7.74931 25.9331 4.96818 23.5597 2.98751L21.6375 5.29081ZM26.334 9.89014H22.1152V12.8901H26.334V9.89014ZM23.5897 11.1146C23.1504 8.76323 22.1953 6.82164 20.5972 5.47907C18.9966 4.13442 16.929 3.54004 14.5566 3.54004V6.54004C16.4323 6.54004 17.7485 7.00401 18.6675 7.77606C19.5889 8.55018 20.2891 9.78365 20.6408 11.6656L23.5897 11.1146ZM14.5566 3.54004C11.3307 3.54004 8.70107 4.70412 6.91018 7.13973L9.32713 8.91691C10.4659 7.36814 12.1283 6.54004 14.5566 6.54004V3.54004ZM6.90904 7.14127C5.19516 9.47839 4.43666 12.7133 4.4214 16.6358L7.42138 16.6474C7.43541 13.0406 8.14176 10.5333 9.32826 8.91537L6.90904 7.14127ZM4.42139 16.6416V19.2563H7.42139V16.6416H4.42139ZM4.42139 19.2563C4.42139 23.0657 5.2928 26.2797 7.19522 28.7426L9.56943 26.9087C8.1906 25.1237 7.42139 22.6248 7.42139 19.2563H4.42139ZM7.1983 28.7466C9.13827 31.2409 11.8046 32.4897 15.04 32.4897V29.4897C12.6798 29.4897 10.9076 28.6293 9.56635 26.9048L7.1983 28.7466ZM15.04 32.4897C16.7284 32.4897 18.2619 32.3027 19.619 31.9006L18.7667 29.0242C17.7508 29.3252 16.5158 29.4897 15.04 29.4897V32.4897ZM19.619 31.9006C21.0402 31.4795 22.2611 30.7522 23.2357 29.704L21.0387 27.6612C20.4606 28.2829 19.7186 28.7422 18.7667 29.0242L19.619 31.9006ZM23.6372 28.6826V21.4976H20.6372V28.6826H23.6372ZM22.1372 19.9976H14.7324V22.9976H22.1372V19.9976ZM16.2324 21.4976V18.0698H13.2324V21.4976H16.2324ZM14.7324 19.5698H26.334V16.5698H14.7324V19.5698ZM24.834 18.0698V29.8032H27.834V18.0698H24.834ZM51.0532 25.6504L52.4619 25.1351L52.1017 24.1504H51.0532V25.6504ZM37.6499 25.6504V24.1504H36.5962L36.2388 25.1417L37.6499 25.6504ZM34.6396 34V35.5H35.6934L36.0507 34.5087L34.6396 34ZM30.2891 34L28.8878 33.4649L28.1106 35.5H30.2891V34ZM42.5059 2.00781V0.507812H41.473L41.1046 1.4727L42.5059 2.00781ZM46.1973 2.00781L47.5982 1.47186L47.2294 0.507812H46.1973V2.00781ZM58.436 34V35.5H60.6159L59.837 33.464L58.436 34ZM54.1074 34L52.6987 34.5153L53.0589 35.5H54.1074V34ZM38.9243 22.1787L37.5142 21.6673L36.7846 23.6787H38.9243V22.1787ZM49.8008 22.1787V23.6787H51.9434L51.2102 21.6654L49.8008 22.1787ZM44.3516 7.21533L45.761 6.70205L44.3487 2.82393L42.9414 6.70388L44.3516 7.21533ZM51.0532 24.1504H37.6499V27.1504H51.0532V24.1504ZM36.2388 25.1417L33.2286 33.4913L36.0507 34.5087L39.061 26.1591L36.2388 25.1417ZM34.6396 32.5H30.2891V35.5H34.6396V32.5ZM31.6904 34.5351L43.9072 2.54293L41.1046 1.4727L28.8878 33.4649L31.6904 34.5351ZM42.5059 3.50781H46.1973V0.507812H42.5059V3.50781ZM44.7963 2.54377L57.0351 34.536L59.837 33.464L47.5982 1.47186L44.7963 2.54377ZM58.436 32.5H54.1074V35.5H58.436V32.5ZM55.5161 33.4847L52.4619 25.1351L49.6445 26.1657L52.6987 34.5153L55.5161 33.4847ZM38.9243 23.6787H49.8008V20.6787H38.9243V23.6787ZM51.2102 21.6654L45.761 6.70205L42.9421 7.72861L48.3913 22.692L51.2102 21.6654ZM42.9414 6.70388L37.5142 21.6673L40.3344 22.6902L45.7617 7.72678L42.9414 6.70388ZM68.1919 2.00781L69.5843 1.44992L69.2068 0.507812H68.1919V2.00781ZM78.6509 28.1113L77.2585 28.6692L78.6509 32.1444L80.0433 28.6692L78.6509 28.1113ZM89.1099 2.00781V0.507812H88.0949L87.7175 1.44992L89.1099 2.00781ZM94.5811 2.00781H96.0811V0.507812H94.5811V2.00781ZM94.5811 34V35.5H96.0811V34H94.5811ZM90.3623 34H88.8623V35.5H90.3623V34ZM90.3623 21.5415L88.863 21.4974L88.8623 21.5194V21.5415H90.3623ZM90.7578 8.09424L92.2572 8.13834L89.3677 7.53065L90.7578 8.09424ZM80.2549 34V35.5H81.2653L81.645 34.5636L80.2549 34ZM77.0249 34L75.6349 34.5638L76.0146 35.5H77.0249V34ZM66.5439 8.16016L67.934 7.59635L65.0447 8.20693L66.5439 8.16016ZM66.9614 21.5415H68.4614V21.5181L68.4607 21.4947L66.9614 21.5415ZM66.9614 34V35.5H68.4614V34H66.9614ZM62.7427 34H61.2427V35.5H62.7427V34ZM62.7427 2.00781V0.507812H61.2427V2.00781H62.7427ZM66.7995 2.56571L77.2585 28.6692L80.0433 27.5534L69.5843 1.44992L66.7995 2.56571ZM80.0433 28.6692L90.5023 2.56571L87.7175 1.44992L77.2585 27.5534L80.0433 28.6692ZM89.1099 3.50781H94.5811V0.507812H89.1099V3.50781ZM93.0811 2.00781V34H96.0811V2.00781H93.0811ZM94.5811 32.5H90.3623V35.5H94.5811V32.5ZM91.8623 34V21.5415H88.8623V34H91.8623ZM91.8617 21.5856L92.2572 8.13834L89.2585 8.05014L88.863 21.4974L91.8617 21.5856ZM89.3677 7.53065L78.8648 33.4364L81.645 34.5636L92.1479 8.65782L89.3677 7.53065ZM80.2549 32.5H77.0249V35.5H80.2549V32.5ZM78.4149 33.4362L67.934 7.59635L65.1539 8.72396L75.6349 34.5638L78.4149 33.4362ZM65.0447 8.20693L65.4622 21.5883L68.4607 21.4947L68.0432 8.11338L65.0447 8.20693ZM65.4614 21.5415V34H68.4614V21.5415H65.4614ZM66.9614 32.5H62.7427V35.5H66.9614V32.5ZM64.2427 34V2.00781H61.2427V34H64.2427ZM62.7427 3.50781H68.1919V0.507812H62.7427V3.50781ZM120.113 19.2124V20.7124H121.613V19.2124H120.113ZM106.249 19.2124V17.7124H104.749V19.2124H106.249ZM106.249 30.5503H104.749V32.0503H106.249V30.5503ZM122.354 30.5503H123.854V29.0503H122.354V30.5503ZM122.354 34V35.5H123.854V34H122.354ZM102.03 34H100.53V35.5H102.03V34ZM102.03 2.00781V0.507812H100.53V2.00781H102.03ZM122.135 2.00781H123.635V0.507812H122.135V2.00781ZM122.135 5.47949V6.97949H123.635V5.47949H122.135ZM106.249 5.47949V3.97949H104.749V5.47949H106.249ZM106.249 15.7627H104.749V17.2627H106.249V15.7627ZM120.113 15.7627H121.613V14.2627H120.113V15.7627ZM120.113 17.7124H106.249V20.7124H120.113V17.7124ZM104.749 19.2124V30.5503H107.749V19.2124H104.749ZM106.249 32.0503H122.354V29.0503H106.249V32.0503ZM120.854 30.5503V34H123.854V30.5503H120.854ZM122.354 32.5H102.03V35.5H122.354V32.5ZM103.53 34V2.00781H100.53V34H103.53ZM102.03 3.50781H122.135V0.507812H102.03V3.50781ZM120.635 2.00781V5.47949H123.635V2.00781H120.635ZM122.135 3.97949H106.249V6.97949H122.135V3.97949ZM104.749 5.47949V15.7627H107.749V5.47949H104.749ZM106.249 17.2627H120.113V14.2627H106.249V17.2627ZM118.613 15.7627V19.2124H121.613V15.7627H118.613ZM161.795 27.2544L163.162 27.8732L163.163 27.8699L161.795 27.2544ZM143.844 32.5938L143.036 33.8577L143.043 33.862L143.844 32.5938ZM139.295 27.2983L137.935 27.9308L137.94 27.9412L139.295 27.2983ZM137.647 19.3223H136.147V19.3295L136.148 19.3368L137.647 19.3223ZM143.778 3.45801L144.586 4.72193L144.588 4.72039L143.778 3.45801ZM157.269 3.43604L156.461 4.70001L156.472 4.70697L157.269 3.43604ZM161.795 8.81934L160.426 9.4317L160.428 9.43488L161.795 8.81934ZM156.896 8.24805L155.694 9.14667L155.698 9.15082L156.896 8.24805ZM144.195 8.24805L142.998 7.34392L142.997 7.34527L144.195 8.24805ZM141.844 16.6855L140.344 16.6673L140.344 16.6764V16.6855H141.844ZM144.151 27.7158L142.939 28.5996L142.946 28.6091L144.151 27.7158ZM156.874 27.8916L158.07 28.7959L158.074 28.7916L156.874 27.8916ZM159.181 19.3442L160.681 19.362L160.681 19.3531V19.3442H159.181ZM161.877 19.0366C161.877 22.0048 161.378 24.5263 160.428 26.6388L163.163 27.8699C164.322 25.295 164.877 22.338 164.877 19.0366H161.877ZM160.429 26.6356C159.48 28.731 158.168 30.272 156.508 31.3283L158.118 33.8592C160.326 32.4546 162.001 30.436 163.162 27.8732L160.429 26.6356ZM156.508 31.3283C154.844 32.387 152.875 32.9395 150.545 32.9395V35.9395C153.372 35.9395 155.915 35.2614 158.118 33.8592L156.508 31.3283ZM150.545 32.9395C148.282 32.9395 146.331 32.3905 144.645 31.3255L143.043 33.862C145.253 35.2579 147.77 35.9395 150.545 35.9395V32.9395ZM144.652 31.3298C142.962 30.2504 141.626 28.7111 140.651 26.6555L137.94 27.9412C139.133 30.4559 140.829 32.4469 143.036 33.8577L144.652 31.3298ZM140.656 26.6659C139.692 24.593 139.175 22.1517 139.147 19.3077L136.148 19.3368C136.179 22.528 136.76 25.4041 137.935 27.9308L140.656 26.6659ZM139.147 19.3223V17.0151H136.147V19.3223H139.147ZM139.147 17.0151C139.147 14.113 139.651 11.6134 140.618 9.48271L137.885 8.24386C136.713 10.8299 136.147 13.7649 136.147 17.0151H139.147ZM140.618 9.48271C141.582 7.35586 142.911 5.79245 144.586 4.72193L142.97 2.19408C140.749 3.6138 139.06 5.6539 137.885 8.24386L140.618 9.48271ZM144.588 4.72039C146.29 3.62826 148.245 3.06836 150.501 3.06836V0.0683594C147.719 0.0683594 145.192 0.768227 142.968 2.19563L144.588 4.72039ZM150.501 3.06836C152.811 3.06836 154.78 3.62547 156.461 4.69996L158.077 2.17211C155.862 0.756366 153.319 0.0683594 150.501 0.0683594V3.06836ZM156.472 4.70697C158.155 5.76164 159.478 7.31227 160.426 9.4317L163.165 8.20697C162.003 5.6096 160.309 3.57137 158.066 2.1651L156.472 4.70697ZM160.428 9.43488C161.379 11.5483 161.877 14.0628 161.877 17.0151H164.877C164.877 13.7273 164.322 10.7779 163.163 8.20379L160.428 9.43488ZM161.877 17.0151V19.0366H164.877V17.0151H161.877ZM160.681 16.9712C160.681 13.0061 159.889 9.72796 158.093 7.34527L155.698 9.15082C156.949 10.8111 157.681 13.3484 157.681 16.9712H160.681ZM158.097 7.34943C156.265 4.90208 153.671 3.69385 150.501 3.69385V6.69385C152.81 6.69385 154.479 7.52175 155.694 9.14666L158.097 7.34943ZM150.501 3.69385C147.39 3.69385 144.835 4.91329 142.998 7.34392L145.392 9.15217C146.632 7.51054 148.281 6.69385 150.501 6.69385V3.69385ZM142.997 7.34527C141.216 9.70968 140.391 12.8752 140.344 16.6673L143.344 16.7038C143.386 13.2888 144.128 10.8294 145.393 9.15082L142.997 7.34527ZM140.344 16.6855V19.0366H143.344V16.6855H140.344ZM140.344 19.0366C140.344 22.9051 141.152 26.1477 142.939 28.5996L145.363 26.8321C144.075 25.0652 143.344 22.5216 143.344 19.0366H140.344ZM142.946 28.6091C144.795 31.1028 147.382 32.3579 150.545 32.3579V29.3579C148.289 29.3579 146.613 28.5183 145.356 26.8226L142.946 28.6091ZM150.545 32.3579C153.686 32.3579 156.262 31.1896 158.07 28.7959L155.677 26.9874C154.497 28.5487 152.854 29.3579 150.545 29.3579V32.3579ZM158.074 28.7916C159.832 26.4475 160.635 23.2387 160.681 19.362L157.681 19.3265C157.639 22.8619 156.904 25.3514 155.674 26.9916L158.074 28.7916ZM160.681 19.3442V16.9712H157.681V19.3442H160.681ZM187.35 19.8716V21.3716H188.85V19.8716H187.35ZM173.924 19.8716V18.3716H172.424V19.8716H173.924ZM173.924 34V35.5H175.424V34H173.924ZM169.706 34H168.206V35.5H169.706V34ZM169.706 2.00781V0.507812H168.206V2.00781H169.706ZM189.525 2.00781H191.025V0.507812H189.525V2.00781ZM189.525 5.47949V6.97949H191.025V5.47949H189.525ZM173.924 5.47949V3.97949H172.424V5.47949H173.924ZM173.924 16.4219H172.424V17.9219H173.924V16.4219ZM187.35 16.4219H188.85V14.9219H187.35V16.4219ZM187.35 18.3716H173.924V21.3716H187.35V18.3716ZM172.424 19.8716V34H175.424V19.8716H172.424ZM173.924 32.5H169.706V35.5H173.924V32.5ZM171.206 34V2.00781H168.206V34H171.206ZM169.706 3.50781H189.525V0.507812H169.706V3.50781ZM188.025 2.00781V5.47949H191.025V2.00781H188.025ZM189.525 3.97949H173.924V6.97949H189.525V3.97949ZM172.424 5.47949V16.4219H175.424V5.47949H172.424ZM173.924 17.9219H187.35V14.9219H173.924V17.9219ZM185.85 16.4219V19.8716H188.85V16.4219H185.85ZM229.273 23.8486L230.763 24.0228L230.959 22.3486H229.273V23.8486ZM225.516 31.6929L226.503 32.8222L226.504 32.8217L225.516 31.6929ZM208.048 30.3745L206.898 31.3378L206.901 31.3415L208.048 30.3745ZM206.224 8.57764L204.869 7.93512L204.865 7.94234L206.224 8.57764ZM210.75 3.39209L211.538 4.66894L211.545 4.66462L210.75 3.39209ZM225.692 4.4248L224.671 5.524L224.675 5.52792L225.692 4.4248ZM229.273 12.291V13.791H230.932L230.766 12.1411L229.273 12.291ZM225.033 12.291L223.548 12.5043L223.733 13.791H225.033V12.291ZM222.638 6.75391L221.61 7.847L221.617 7.8531L222.638 6.75391ZM211.168 8.02832L209.981 7.11164L209.976 7.11715L211.168 8.02832ZM222.528 29.4077L223.497 30.5523L223.499 30.5513L222.528 29.4077ZM225.033 23.8486V22.3486H223.748L223.551 23.6181L225.033 23.8486ZM227.784 23.6745C227.421 26.7724 226.3 29.0136 224.528 30.564L226.504 32.8217C228.951 30.6808 230.334 27.6924 230.763 24.0228L227.784 23.6745ZM224.529 30.5635C222.772 32.0997 220.363 32.9395 217.145 32.9395V35.9395C220.899 35.9395 224.071 34.9482 226.503 32.8222L224.529 30.5635ZM217.145 32.9395C213.774 32.9395 211.174 31.7548 209.195 29.4075L206.901 31.3415C209.492 34.4141 212.956 35.9395 217.145 35.9395V32.9395ZM209.198 29.4112C207.211 27.0404 206.142 23.789 206.142 19.498H203.142C203.142 24.2891 204.343 28.2887 206.898 31.3378L209.198 29.4112ZM206.142 19.498V16.4219H203.142V19.498H206.142ZM206.142 16.4219C206.142 13.6257 206.638 11.235 207.583 9.21293L204.865 7.94234C203.701 10.432 203.142 13.2708 203.142 16.4219H206.142ZM207.58 9.22014C208.536 7.20144 209.858 5.70422 211.538 4.66892L209.963 2.11526C207.746 3.4823 206.05 5.44212 204.869 7.93513L207.58 9.22014ZM211.545 4.66462C213.228 3.61431 215.202 3.06836 217.518 3.06836V0.0683594C214.707 0.0683594 212.17 0.738227 209.956 2.11956L211.545 4.66462ZM217.518 3.06836C220.623 3.06836 222.955 3.93018 224.671 5.52399L226.713 3.32561C224.327 1.11084 221.21 0.0683594 217.518 0.0683594V3.06836ZM224.675 5.52792C226.402 7.11918 227.473 9.37164 227.781 12.4409L230.766 12.1411C230.4 8.50141 229.083 5.50973 226.708 3.32169L224.675 5.52792ZM229.273 10.791H225.033V13.791H229.273V10.791ZM226.517 12.0777C226.127 9.36149 225.244 7.12671 223.658 5.65472L221.617 7.8531C222.493 8.66625 223.206 10.1229 223.548 12.5043L226.517 12.0777ZM223.665 5.66083C222.092 4.18258 219.973 3.54004 217.518 3.54004V6.54004C219.458 6.54004 220.752 7.04007 221.61 7.84698L223.665 5.66083ZM217.518 3.54004C214.396 3.54004 211.825 4.72242 209.981 7.11165L212.355 8.94499C213.587 7.34985 215.249 6.54004 217.518 6.54004V3.54004ZM209.976 7.11715C208.179 9.46794 207.383 12.6732 207.383 16.5317H210.383C210.383 13.0368 211.11 10.5731 212.36 8.9395L209.976 7.11715ZM207.383 16.5317V19.6299H210.383V16.5317H207.383ZM207.383 19.6299C207.383 23.2963 208.147 26.3953 209.833 28.7796L212.283 27.0475C211.068 25.3303 210.383 22.9068 210.383 19.6299H207.383ZM209.833 28.7796C211.577 31.2456 214.072 32.4897 217.145 32.4897V29.4897C215.002 29.4897 213.439 28.6831 212.283 27.0475L209.833 28.7796ZM217.145 32.4897C219.691 32.4897 221.884 31.9186 223.497 30.5523L221.558 28.2631C220.681 29.0062 219.285 29.4897 217.145 29.4897V32.4897ZM223.499 30.5513C225.158 29.1426 226.081 26.8663 226.515 24.0792L223.551 23.6181C223.164 26.1044 222.417 27.5342 221.557 28.2641L223.499 30.5513ZM225.033 25.3486H229.273V22.3486H225.033V25.3486ZM258.08 27.2544L259.446 27.8732L259.447 27.8699L258.08 27.2544ZM240.128 32.5938L239.32 33.8577L239.327 33.862L240.128 32.5938ZM235.58 27.2983L234.219 27.9308L234.224 27.9412L235.58 27.2983ZM233.932 19.3223H232.432V19.3295L232.432 19.3368L233.932 19.3223ZM240.062 3.45801L240.87 4.72193L240.872 4.72039L240.062 3.45801ZM253.553 3.43604L252.745 4.70001L252.757 4.70697L253.553 3.43604ZM258.08 8.81934L256.71 9.4317L256.712 9.43488L258.08 8.81934ZM253.18 8.24805L251.979 9.14667L251.982 9.15082L253.18 8.24805ZM240.479 8.24805L239.283 7.34392L239.282 7.34527L240.479 8.24805ZM238.128 16.6855L236.629 16.6673L236.628 16.6764V16.6855H238.128ZM240.436 27.7158L239.223 28.5996L239.231 28.6091L240.436 27.7158ZM253.158 27.8916L254.355 28.7959L254.358 28.7916L253.158 27.8916ZM255.465 19.3442L256.965 19.362L256.965 19.3531V19.3442H255.465ZM258.162 19.0366C258.162 22.0048 257.662 24.5263 256.712 26.6388L259.447 27.8699C260.606 25.295 261.162 22.338 261.162 19.0366H258.162ZM256.713 26.6356C255.764 28.731 254.452 30.272 252.792 31.3283L254.402 33.8592C256.61 32.4546 258.285 30.436 259.446 27.8732L256.713 26.6356ZM252.792 31.3283C251.128 32.387 249.159 32.9395 246.83 32.9395V35.9395C249.656 35.9395 252.199 35.2614 254.402 33.8592L252.792 31.3283ZM246.83 32.9395C244.566 32.9395 242.615 32.3905 240.929 31.3255L239.327 33.862C241.537 35.2579 244.054 35.9395 246.83 35.9395V32.9395ZM240.936 31.3298C239.247 30.2504 237.91 28.7111 236.935 26.6555L234.224 27.9412C235.417 30.4559 237.113 32.4469 239.32 33.8577L240.936 31.3298ZM236.94 26.6659C235.976 24.593 235.459 22.1517 235.432 19.3077L232.432 19.3368C232.463 22.528 233.045 25.4041 234.219 27.9308L236.94 26.6659ZM235.432 19.3223V17.0151H232.432V19.3223H235.432ZM235.432 17.0151C235.432 14.113 235.936 11.6134 236.902 9.48271L234.17 8.24386C232.997 10.8299 232.432 13.7649 232.432 17.0151H235.432ZM236.902 9.48271C237.866 7.35586 239.195 5.79245 240.87 4.72193L239.254 2.19408C237.033 3.6138 235.344 5.6539 234.17 8.24386L236.902 9.48271ZM240.872 4.72039C242.574 3.62826 244.529 3.06836 246.786 3.06836V0.0683594C244.003 0.0683594 241.476 0.768227 239.252 2.19563L240.872 4.72039ZM246.786 3.06836C249.095 3.06836 251.064 3.62547 252.745 4.69996L254.361 2.17211C252.146 0.756366 249.603 0.0683594 246.786 0.0683594V3.06836ZM252.757 4.70697C254.439 5.76164 255.762 7.31227 256.71 9.4317L259.449 8.20697C258.287 5.6096 256.593 3.57137 254.35 2.1651L252.757 4.70697ZM256.712 9.43488C257.663 11.5483 258.162 14.0628 258.162 17.0151H261.162C261.162 13.7273 260.606 10.7779 259.447 8.20379L256.712 9.43488ZM258.162 17.0151V19.0366H261.162V17.0151H258.162ZM256.965 16.9712C256.965 13.0061 256.173 9.72796 254.378 7.34527L251.982 9.15082C253.233 10.8111 253.965 13.3484 253.965 16.9712H256.965ZM254.381 7.34943C252.55 4.90208 249.955 3.69385 246.786 3.69385V6.69385C249.095 6.69385 250.763 7.52175 251.979 9.14666L254.381 7.34943ZM246.786 3.69385C243.674 3.69385 241.119 4.91329 239.283 7.34392L241.676 9.15217C242.916 7.51054 244.565 6.69385 246.786 6.69385V3.69385ZM239.282 7.34527C237.5 9.70968 236.675 12.8752 236.629 16.6673L239.628 16.7038C239.67 13.2888 240.412 10.8294 241.677 9.15082L239.282 7.34527ZM236.628 16.6855V19.0366H239.628V16.6855H236.628ZM236.628 19.0366C236.628 22.9051 237.436 26.1477 239.224 28.5996L241.648 26.8321C240.359 25.0652 239.628 22.5216 239.628 19.0366H236.628ZM239.231 28.6091C241.079 31.1028 243.666 32.3579 246.83 32.3579V29.3579C244.573 29.3579 242.898 28.5183 241.641 26.8226L239.231 28.6091ZM246.83 32.3579C249.971 32.3579 252.546 31.1896 254.355 28.7959L251.961 26.9874C250.781 28.5487 249.138 29.3579 246.83 29.3579V32.3579ZM254.358 28.7916C256.116 26.4475 256.919 23.2387 256.965 19.362L253.965 19.3265C253.923 22.8619 253.188 25.3514 251.958 26.9916L254.358 28.7916ZM256.965 19.3442V16.9712H253.965V19.3442H256.965ZM265.99 34H264.49V35.5H265.99V34ZM265.99 2.00781V0.507812H264.49V2.00781H265.99ZM287.347 9.10498L286.011 9.78614L286.014 9.79294L287.347 9.10498ZM289.127 16.9272L290.627 16.9272L290.627 16.9198L289.127 16.9272ZM287.369 26.9028L286.036 26.2149L286.033 26.2217L287.369 26.9028ZM282.381 32.1323L281.648 30.824L281.644 30.8261L282.381 32.1323ZM274.845 34V35.5H274.852L274.86 35.4999L274.845 34ZM270.208 5.47949V3.97949H268.708V5.47949H270.208ZM270.208 30.5503H268.708V32.0503H270.208V30.5503ZM282.228 27.5181L281.112 26.5155L281.108 26.52L282.228 27.5181ZM282.381 8.55566L281.233 9.52087L281.241 9.52979L282.381 8.55566ZM275.13 5.47949L275.144 3.97949H275.13V5.47949ZM267.49 34V2.00781H264.49V34H267.49ZM265.99 3.50781H275.021V0.507812H265.99V3.50781ZM275.021 3.50781C277.575 3.50781 279.772 4.07023 281.655 5.15368L283.151 2.55335C280.757 1.17587 278.032 0.507812 275.021 0.507812V3.50781ZM281.655 5.15368C283.533 6.23423 284.981 7.76562 286.011 9.78613L288.684 8.42383C287.399 5.90332 285.551 3.93374 283.151 2.55335L281.655 5.15368ZM286.014 9.79294C287.062 11.823 287.613 14.191 287.627 16.9347L290.627 16.9198C290.611 13.7748 289.976 10.928 288.68 8.41702L286.014 9.79294ZM287.627 16.9272V18.9707H290.627V16.9272H287.627ZM287.627 18.9707C287.627 21.7921 287.08 24.1924 286.036 26.2149L288.702 27.5908C290.002 25.0723 290.627 22.1845 290.627 18.9707H287.627ZM286.033 26.2217C285.006 28.2353 283.55 29.757 281.648 30.824L283.115 33.4406C285.548 32.076 287.417 30.1114 288.706 27.584L286.033 26.2217ZM281.644 30.8261C279.744 31.8987 277.488 32.4729 274.829 32.5001L274.86 35.4999C277.943 35.4685 280.712 34.7976 283.119 33.4385L281.644 30.8261ZM274.845 32.5H265.99V35.5H274.845V32.5ZM268.708 5.47949V30.5503H271.708V5.47949H268.708ZM270.208 32.0503H274.647V29.0503H270.208V32.0503ZM274.647 32.0503C278.233 32.0503 281.204 30.9208 283.347 28.5161L281.108 26.52C279.648 28.1583 277.565 29.0503 274.647 29.0503V32.0503ZM283.343 28.5206C285.487 26.1353 286.452 22.8489 286.452 18.8828H283.452C283.452 22.3874 282.601 24.8579 281.112 26.5155L283.343 28.5206ZM286.452 18.8828V17.0151H283.452V18.8828H286.452ZM286.452 17.0151C286.452 13.1594 285.542 9.94705 283.522 7.58154L281.241 9.52979C282.648 11.178 283.452 13.6052 283.452 17.0151H286.452ZM283.53 7.59049C281.495 5.17024 278.627 4.0121 275.144 3.97956L275.116 6.97943C277.903 7.00547 279.869 7.89812 281.233 9.52084L283.53 7.59049ZM275.13 3.97949H270.208V6.97949H275.13V3.97949ZM313.604 19.2124V20.7124H315.104V19.2124H313.604ZM299.74 19.2124V17.7124H298.24V19.2124H299.74ZM299.74 30.5503H298.24V32.0503H299.74V30.5503ZM315.846 30.5503H317.346V29.0503H315.846V30.5503ZM315.846 34V35.5H317.346V34H315.846ZM295.521 34H294.021V35.5H295.521V34ZM295.521 2.00781V0.507812H294.021V2.00781H295.521ZM315.626 2.00781H317.126V0.507812H315.626V2.00781ZM315.626 5.47949V6.97949H317.126V5.47949H315.626ZM299.74 5.47949V3.97949H298.24V5.47949H299.74ZM299.74 15.7627H298.24V17.2627H299.74V15.7627ZM313.604 15.7627H315.104V14.2627H313.604V15.7627ZM313.604 17.7124H299.74V20.7124H313.604V17.7124ZM298.24 19.2124V30.5503H301.24V19.2124H298.24ZM299.74 32.0503H315.846V29.0503H299.74V32.0503ZM314.346 30.5503V34H317.346V30.5503H314.346ZM315.846 32.5H295.521V35.5H315.846V32.5ZM297.021 34V2.00781H294.021V34H297.021ZM295.521 3.50781H315.626V0.507812H295.521V3.50781ZM314.126 2.00781V5.47949H317.126V2.00781H314.126ZM315.626 3.97949H299.74V6.97949H315.626V3.97949ZM298.24 5.47949V15.7627H301.24V5.47949H298.24ZM299.74 17.2627H313.604V14.2627H299.74V17.2627ZM312.104 15.7627V19.2124H315.104V15.7627H312.104ZM330.523 19.7397L330.94 18.2988L330.938 18.2981L330.523 19.7397ZM322.613 15.9165L321.593 17.0157L321.603 17.0251L322.613 15.9165ZM323.163 4.05127L324.112 5.21258L324.113 5.21183L323.163 4.05127ZM336.896 2.84277L336.229 4.18671L336.234 4.18895L336.896 2.84277ZM340.895 6.3584L339.624 7.15565L339.63 7.16451L340.895 6.3584ZM342.323 11.2583V12.7583H343.823V11.2583H342.323ZM338.082 11.2583H336.582V12.7583H338.082V11.2583ZM336.236 6.70996L335.23 7.82229L335.237 7.82887L336.236 6.70996ZM326.151 6.42432L327.077 7.60431L327.079 7.60277L326.151 6.42432ZM326.063 13.5435L325.107 14.6996L325.116 14.7065L325.124 14.7133L326.063 13.5435ZM331.71 16.0044L331.303 17.4482L331.305 17.4488L331.71 16.0044ZM337.95 18.4873L337.171 19.7691L337.178 19.7736L337.186 19.7779L337.95 18.4873ZM341.29 21.6294L340.002 22.3989L340.009 22.4103L341.29 21.6294ZM339.356 32.1104L340.27 33.2999L340.276 33.2958L339.356 32.1104ZM325.096 33.187L324.485 34.5569L324.494 34.5608L325.096 33.187ZM320.68 29.7153L319.451 30.5755L319.457 30.5837L320.68 29.7153ZM319.142 24.7275V23.2275H317.642V24.7275H319.142ZM323.382 24.7275H324.882V23.2275H323.382V24.7275ZM325.514 29.3198L324.581 30.4947L324.588 30.4999L324.594 30.5052L325.514 29.3198ZM336.5 22.2886L335.573 23.4675L335.582 23.4752L336.5 22.2886ZM330.938 18.2981C327.41 17.2839 325.03 16.0898 323.624 14.8079L321.603 17.0251C323.507 18.7608 326.401 20.1155 330.109 21.1814L330.938 18.2981ZM323.634 14.8173C322.297 13.5759 321.652 12.0983 321.652 10.2915H318.652C318.652 12.9378 319.648 15.2102 321.593 17.0157L323.634 14.8173ZM321.652 10.2915C321.652 8.23688 322.442 6.57782 324.112 5.21258L322.213 2.88996C319.87 4.80597 318.652 7.30707 318.652 10.2915H321.652ZM324.113 5.21183C325.808 3.82363 328.069 3.06836 331.029 3.06836V0.0683594C327.543 0.0683594 324.56 0.968358 322.212 2.89071L324.113 5.21183ZM331.029 3.06836C333.029 3.06836 334.751 3.45402 336.229 4.1867L337.562 1.49884C335.612 0.532303 333.423 0.0683594 331.029 0.0683594V3.06836ZM336.234 4.18895C337.736 4.92737 338.848 5.91897 339.624 7.15564L342.165 5.56116C341.066 3.80955 339.512 2.4574 337.557 1.4966L336.234 4.18895ZM339.63 7.16451C340.428 8.4177 340.823 9.77131 340.823 11.2583H343.823C343.823 9.20036 343.265 7.28738 342.16 5.55228L339.63 7.16451ZM342.323 9.7583H338.082V12.7583H342.323V9.7583ZM339.582 11.2583C339.582 8.97821 338.84 7.02399 337.235 5.59105L335.237 7.82887C336.093 8.5932 336.582 9.6712 336.582 11.2583H339.582ZM337.243 5.59766C335.652 4.1585 333.51 3.54004 331.029 3.54004V6.54004C333.03 6.54004 334.36 7.03486 335.23 7.82226L337.243 5.59766ZM331.029 3.54004C328.743 3.54004 326.746 4.04623 325.223 5.24586L327.079 7.60277C327.899 6.9567 329.155 6.54004 331.029 6.54004V3.54004ZM325.225 5.24432C323.664 6.46944 322.915 8.19447 322.915 10.2256H325.915C325.915 9.00475 326.324 8.1956 327.077 7.60431L325.225 5.24432ZM322.915 10.2256C322.915 12.0219 323.7 13.5366 325.107 14.6996L327.019 12.3873C326.228 11.7339 325.915 11.0367 325.915 10.2256H322.915ZM325.124 14.7133C326.481 15.8023 328.605 16.6878 331.303 17.4482L332.117 14.5606C329.513 13.8269 327.872 13.0718 327.002 12.3737L325.124 14.7133ZM331.305 17.4488C333.907 18.1777 335.841 18.9607 337.171 19.7691L338.729 17.2055C337.071 16.1975 334.845 15.3252 332.115 14.56L331.305 17.4488ZM337.186 19.7779C338.533 20.5758 339.441 21.46 340.002 22.3988L342.578 20.86C341.703 19.3965 340.385 18.1859 338.715 17.1967L337.186 19.7779ZM340.009 22.4103C340.577 23.3416 340.889 24.476 340.889 25.8701H343.889C343.889 24.0123 343.468 22.3196 342.571 20.8485L340.009 22.4103ZM340.889 25.8701C340.889 28.0066 340.087 29.6462 338.437 30.9249L340.276 33.2958C342.669 31.4398 343.889 28.9192 343.889 25.8701H340.889ZM338.443 30.9208C336.758 32.2151 334.41 32.9395 331.249 32.9395V35.9395C334.855 35.9395 337.912 35.1111 340.27 33.2999L338.443 30.9208ZM331.249 32.9395C329.247 32.9395 327.402 32.5603 325.699 31.8133L324.494 34.5608C326.599 35.4837 328.856 35.9395 331.249 35.9395V32.9395ZM325.707 31.8172C324.008 31.0591 322.764 30.0598 321.903 28.8469L319.457 30.5837C320.676 32.3006 322.375 33.6157 324.485 34.5569L325.707 31.8172ZM321.909 28.8551C321.067 27.653 320.642 26.2934 320.642 24.7275H317.642C317.642 26.8824 318.242 28.8479 319.451 30.5755L321.909 28.8551ZM319.142 26.2275H323.382V23.2275H319.142V26.2275ZM321.882 24.7275C321.882 27.0841 322.775 29.0613 324.581 30.4947L326.446 28.145C325.41 27.3225 324.882 26.2382 324.882 24.7275H321.882ZM324.594 30.5052C326.365 31.8785 328.633 32.4897 331.249 32.4897V29.4897C329.089 29.4897 327.533 28.9877 326.433 28.1345L324.594 30.5052ZM331.249 32.4897C333.65 32.4897 335.731 32.0041 337.28 30.8186L335.456 28.4363C334.632 29.0672 333.3 29.4897 331.249 29.4897V32.4897ZM337.28 30.8186C338.858 29.6107 339.648 27.9218 339.648 25.9141H336.648C336.648 27.0411 336.252 27.8278 335.456 28.4363L337.28 30.8186ZM339.648 25.9141C339.648 23.9503 338.934 22.2748 337.418 21.102L335.582 23.4752C336.263 24.0015 336.648 24.743 336.648 25.9141H339.648ZM337.427 21.1096C336.084 20.0529 333.847 19.14 330.94 18.2988L330.107 21.1806C332.971 22.0094 334.719 22.7957 335.573 23.4675L337.427 21.1096Z"/></svg>