<svg width="1440" height="513" viewBox="0 0 1440 513" fill="none" xmlns="http://www.w3.org/2000/svg">
<path fill-rule="evenodd" clip-rule="evenodd" d="M1216.69 75.1022C1211.1 68.5361 1207.31 60.4894 1207.94 51.4728C1209.76 25.4935 1245.93 31.2086 1252.96 44.3207C1260 57.4329 1259.16 90.6929 1250.07 93.0364C1246.45 93.971 1238.72 91.6816 1230.86 86.9433L1235.79 121.852H1206.66L1216.69 75.1022Z" fill="#B28B67"/>
<mask id="mask0" mask-type="alpha" maskUnits="userSpaceOnUse" x="1187" y="30" width="68" height="128">
<path d="M1249.11 39.8399C1249.75 40.058 1249.11 37.2658 1247.55 36.2446C1242.79 33.1131 1228.63 28.4784 1218.94 30.4896C1212.45 31.8369 1204.35 35.2188 1199.17 39.53C1194.49 43.4165 1190.24 50.2682 1188.59 56.2877C1186.85 62.6082 1186.19 71.4029 1188.59 76.9173C1191.44 83.4846 1201.54 90.5624 1201.8 91.5024C1202.11 92.5751 1200.91 96.7657 1200.04 101.181C1199.17 105.597 1199.57 116.84 1200.04 118.674C1200.8 121.604 1204.88 123.045 1206.66 123.257C1216.49 124.429 1223.62 136.636 1226.59 139.759C1239.79 153.017 1249.01 158.783 1254.24 157.056C1255.61 156.602 1253.55 140.129 1252.17 133.068C1250.8 126.007 1237.31 113.407 1236.44 109.255C1235.93 106.809 1235.85 102.551 1235.79 102.357C1234.52 93.5845 1234.74 92.8714 1232.88 89.2967C1231.03 85.7221 1229.59 85.5123 1230.04 84.471C1232.22 79.3831 1239.23 63.8159 1240.82 58.7255C1242.71 52.6586 1241.82 54.6513 1243.77 48.6049C1244.63 45.9275 1245.74 38.7075 1249.11 39.8399Z" fill="white"/>
</mask>
<g mask="url(#mask0)">
<path d="M1249.11 39.8399C1249.75 40.058 1249.11 37.2658 1247.55 36.2446C1242.79 33.1131 1228.63 28.4784 1218.94 30.4896C1212.45 31.8369 1204.35 35.2188 1199.17 39.53C1194.49 43.4165 1190.24 50.2682 1188.59 56.2877C1186.85 62.6082 1186.19 71.4029 1188.59 76.9173C1191.44 83.4846 1201.54 90.5624 1201.8 91.5024C1202.11 92.5751 1200.91 96.7657 1200.04 101.181C1199.17 105.597 1199.57 116.84 1200.04 118.674C1200.8 121.604 1204.88 123.045 1206.66 123.257C1216.49 124.429 1223.62 136.636 1226.59 139.759C1239.79 153.017 1249.01 158.783 1254.24 157.056C1255.61 156.602 1253.55 140.129 1252.17 133.068C1250.8 126.007 1237.31 113.407 1236.44 109.255C1235.93 106.809 1235.85 102.551 1235.79 102.357C1234.52 93.5845 1234.74 92.8714 1232.88 89.2967C1231.03 85.7221 1229.59 85.5123 1230.04 84.471C1232.22 79.3831 1239.23 63.8159 1240.82 58.7255C1242.71 52.6586 1241.82 54.6513 1243.77 48.6049C1244.63 45.9275 1245.74 38.7075 1249.11 39.8399Z" fill="#89C5CC"/>
<path fill-rule="evenodd" clip-rule="evenodd" d="M1224.04 40.5162C1221.91 47.273 1221.45 50.8798 1221.91 60.1121H1220.86C1218.91 51.3996 1220.65 43.1977 1222.73 40.5162H1224.04ZM1195.47 57.9539C1199.44 67.5831 1201.25 73.2693 1212.33 81.0614L1211.47 81.6606C1200.47 75.4259 1197.27 67.9889 1194.63 58.355L1195.47 57.9539ZM1211.77 48.1548C1213.58 61.8225 1214.1 69.6295 1223.49 84.5801L1222.49 84.8855C1212.83 71.8681 1211.3 61.2435 1210.84 48.2299L1211.77 48.1548ZM1201.4 88.7545L1202.26 87.7155C1213.92 91.3686 1212.62 98.9106 1227.31 106.549L1226.08 107.292C1213.22 101.984 1210.21 90.5985 1201.4 88.7545Z" fill="black" fill-opacity="0.2"/>
</g>
<path fill-rule="evenodd" clip-rule="evenodd" d="M1183.25 222.31C1185.44 252.185 1326.45 340.141 1327.28 342.609C1327.64 343.706 1313.01 378.377 1283.39 446.623L1295.71 451.413C1341.15 379.136 1362.71 339.146 1360.37 331.445C1357.03 320.419 1320.56 284.146 1250.96 222.628L1183.25 222.31Z" fill="#B28B67"/>
<path fill-rule="evenodd" clip-rule="evenodd" d="M1286.63 431.211L1306.75 438.537C1349.19 390.655 1365.83 351.148 1362.79 331.019C1360.77 317.6 1324.43 281.388 1253.76 222.383L1181.81 222.383C1184.26 291.569 1314.97 342.872 1316.71 345.821C1318.46 348.769 1301.26 377.645 1286.63 431.211Z" fill="#2F3676"/>
<path fill-rule="evenodd" clip-rule="evenodd" d="M1278.85 444.27C1276.33 447.212 1274.77 449.529 1274.15 451.221C1273.4 453.278 1272.65 456.404 1271.9 460.6C1274.29 461.469 1295.74 469.275 1336.24 484.018C1339.93 479.099 1340.05 475.764 1336.61 474.012C1333.16 472.26 1330.32 470.773 1328.06 469.551L1303.01 445.334C1302.53 444.868 1301.76 444.881 1301.29 445.364C1301.29 445.372 1301.28 445.38 1301.27 445.389L1297.65 449.352C1293.75 449.694 1290.76 449.486 1288.67 448.727C1286.98 448.11 1284.89 446.575 1282.4 444.12L1282.4 444.12C1281.45 443.178 1279.91 443.188 1278.97 444.142C1278.93 444.183 1278.89 444.226 1278.85 444.27Z" fill="#E4E4E4"/>
<path fill-rule="evenodd" clip-rule="evenodd" d="M1199.47 222.31L1136.65 373.116L1074.91 500.611H1089.48L1248.84 222.31H1199.47Z" fill="#997659"/>
<path fill-rule="evenodd" clip-rule="evenodd" d="M1074.04 494.725C1072.68 498.351 1072 501.063 1072 502.863C1072 505.052 1072.36 508.247 1073.09 512.447C1075.63 512.447 1098.46 512.447 1141.56 512.447C1143.34 506.564 1142.32 503.389 1138.48 502.92C1134.65 502.451 1131.46 502.027 1128.93 501.649L1097.1 487.462C1096.49 487.189 1095.77 487.464 1095.5 488.076C1095.5 488.087 1095.49 488.097 1095.49 488.108L1093.44 493.07C1089.89 494.726 1087.01 495.554 1084.79 495.554C1082.99 495.554 1080.5 494.826 1077.32 493.37L1077.32 493.37C1076.1 492.811 1074.66 493.346 1074.1 494.565C1074.08 494.618 1074.06 494.671 1074.04 494.725Z" fill="#E4E4E4"/>
<path fill-rule="evenodd" clip-rule="evenodd" d="M1080.48 474.125L1112.85 480.195C1137.88 443.402 1242.61 292.54 1254.09 222.31H1182.04C1143.69 273.079 1104.34 436.724 1080.48 474.125Z" fill="#5C63AB"/>
<path fill-rule="evenodd" clip-rule="evenodd" d="M1300.75 97.8545L1346.77 84.0416C1355.35 77.3594 1363.45 72.4737 1371.06 69.3845C1373.27 68.9679 1376.93 69.2099 1372.36 74.4035C1367.78 79.5971 1363.2 85.2659 1364.5 87.4436C1365.81 89.6213 1370.57 87.9797 1371.95 91.4293C1372.87 93.729 1364.98 95.3761 1348.28 96.3706L1312.5 117.426L1300.75 97.8545ZM1296.69 178.98L1335.41 207.416C1345.91 210.25 1354.69 213.775 1361.73 217.993C1363.4 219.51 1365.41 222.582 1358.51 222.051C1351.6 221.52 1344.32 221.272 1343.37 223.627C1342.41 225.981 1346.59 228.797 1344.67 231.974C1343.38 234.092 1337.32 228.781 1326.47 216.042L1288.13 200.141L1296.69 178.98Z" fill="#B28B67"/>
<path fill-rule="evenodd" clip-rule="evenodd" d="M1236.54 102.402C1257.63 141.722 1288.12 171.863 1332.33 203.196L1315.59 222.069C1266.23 203.726 1240.18 192.659 1227.39 155.51C1224.18 146.187 1221.93 116.465 1220.01 100.826L1236.54 102.402Z" fill="#2026A2"/>
<path fill-rule="evenodd" clip-rule="evenodd" d="M1177.59 233.405H1271.06C1249.89 168.828 1239.07 124.507 1238.62 100.441C1238.59 99.2144 1236.33 97.0524 1235.32 97.3355C1227.99 99.406 1220.15 98.6319 1211.79 95.013C1189.63 130.653 1181.97 174.533 1177.59 233.405Z" fill="#F2F2F2"/>
<path fill-rule="evenodd" clip-rule="evenodd" d="M1213.4 88.9832C1240.2 89.2026 1283.67 94.0955 1333.8 78L1338.75 102.733C1300.86 127.103 1262.49 145.981 1228.87 143.3C1243.47 205.924 1242.8 257.188 1210.57 257.188C1195.17 257.188 1178.56 257.188 1160.73 257.188C1152.81 203.99 1173.61 130.229 1192.9 93.0247C1193.64 91.604 1195.21 88.9256 1198.9 88.9256C1202.12 88.9256 1206.95 88.9256 1213.38 88.9256C1213.39 88.9448 1213.39 88.964 1213.4 88.9832Z" fill="#1F28CF"/>
<path fill-rule="evenodd" clip-rule="evenodd" d="M0 210L10 202C21 195 42 181 63 202C83 224 104 282 125 282C146 282 167 224 188 224C209 224 230 282 250 332C271 382 292 426 313 397C334 368 355 267 376 260C397 253 417 339 438 339C459 339 480 253 501 246C522 238 543 310 563 368C584 426 605 469 626 483C647 498 668 483 689 476C710 469 730 469 751 454C772 440 793 411 814 361C835 310 856 238 877 260C897 282 918 397 939 418C960 440 981 368 1002 332C1023 296 1043 296 1064 282C1085 267 1106 238 1127 224C1148 210 1169 210 1190 224C1210 238 1231 267 1252 282C1273 296 1294 296 1315 274C1336 253 1357 210 1377 181C1398 152 1419 138 1430 130L1440 123V512H1430C1419 512 1398 512 1377 512C1357 512 1336 512 1315 512C1294 512 1273 512 1252 512C1231 512 1210 512 1190 512C1169 512 1148 512 1127 512C1106 512 1085 512 1064 512C1043 512 1023 512 1002 512C981 512 960 512 939 512C918 512 897 512 877 512C856 512 835 512 814 512C793 512 772 512 751 512C730 512 710 512 689 512C668 512 647 512 626 512C605 512 584 512 563 512C543 512 522 512 501 512C480 512 459 512 438 512C417 512 397 512 376 512C355 512 334 512 313 512C292 512 271 512 250 512C230 512 209 512 188 512C167 512 146 512 125 512C104 512 83 512 63 512C42 512 21 512 10 512H0V210Z" fill="#606365"/>
</svg>
