<svg width="1440" height="745" viewBox="0 0 1440 745" fill="none" xmlns="http://www.w3.org/2000/svg">
<path fill-rule="evenodd" clip-rule="evenodd" d="M4.68926 45.1021C-0.904565 38.5361 -4.69058 30.4894 -4.05794 21.4728C-2.23511 -4.50654 33.929 1.20858 40.9637 14.3207C47.9984 27.4329 47.1625 60.6929 38.0708 63.0364C34.445 63.971 26.7211 61.6816 18.8599 56.9433L23.7942 91.8516H-5.34082L4.68926 45.1021Z" fill="#B28B67"/>
<mask id="mask0" mask-type="alpha" maskUnits="userSpaceOnUse" x="-25" y="0" width="68" height="128">
<path d="M37.1057 9.83993C37.7547 10.058 37.1057 7.26575 35.5536 6.24457C30.794 3.11308 16.6254 -1.52165 6.93684 0.489585C0.446392 1.83692 -7.6482 5.21885 -12.8323 9.52998C-17.5056 13.4165 -21.758 20.2682 -23.4127 26.2877C-25.1501 32.6082 -25.8068 41.4029 -23.4127 46.9173C-20.5615 53.4846 -10.4638 60.5624 -10.1967 61.5024C-9.89189 62.5751 -11.0854 66.7657 -11.9589 71.1814C-12.8323 75.5971 -12.4348 86.84 -11.9589 88.6737C-11.1983 91.604 -7.11974 93.0448 -5.34089 93.2568C4.49256 94.4286 11.6208 106.636 14.5873 109.759C27.7923 123.017 37.0082 128.783 42.235 127.056C43.6107 126.602 41.5487 110.129 40.173 103.068C38.7974 96.0074 25.3054 83.4075 24.4413 79.2552C23.9324 76.8091 23.8475 72.5511 23.7942 72.3569C22.5216 63.5845 22.7408 62.8714 20.8847 59.2967C19.0286 55.7221 17.5895 55.5123 18.0356 54.471C20.2152 49.3831 27.2254 33.8159 28.8158 28.7255C30.7112 22.6586 29.8155 24.6513 31.7696 18.6049C32.6349 15.9275 33.736 8.70754 37.1057 9.83993Z" fill="white"/>
</mask>
<g mask="url(#mask0)">
<path d="M37.1057 9.83993C37.7547 10.058 37.1057 7.26575 35.5536 6.24457C30.794 3.11308 16.6254 -1.52165 6.93684 0.489585C0.446392 1.83692 -7.6482 5.21885 -12.8323 9.52998C-17.5056 13.4165 -21.758 20.2682 -23.4127 26.2877C-25.1501 32.6082 -25.8068 41.4029 -23.4127 46.9173C-20.5615 53.4846 -10.4638 60.5624 -10.1967 61.5024C-9.89189 62.5751 -11.0854 66.7657 -11.9589 71.1814C-12.8323 75.5971 -12.4348 86.84 -11.9589 88.6737C-11.1983 91.604 -7.11974 93.0448 -5.34089 93.2568C4.49256 94.4286 11.6208 106.636 14.5873 109.759C27.7923 123.017 37.0082 128.783 42.235 127.056C43.6107 126.602 41.5487 110.129 40.173 103.068C38.7974 96.0074 25.3054 83.4075 24.4413 79.2552C23.9324 76.8091 23.8475 72.5511 23.7942 72.3569C22.5216 63.5845 22.7408 62.8714 20.8847 59.2967C19.0286 55.7221 17.5895 55.5123 18.0356 54.471C20.2152 49.3831 27.2254 33.8159 28.8158 28.7255C30.7112 22.6586 29.8155 24.6513 31.7696 18.6049C32.6349 15.9275 33.736 8.70754 37.1057 9.83993Z" fill="#89C5CC"/>
<path fill-rule="evenodd" clip-rule="evenodd" d="M12.0383 10.5162C9.90875 17.273 9.45073 20.8798 9.90874 30.1121H8.86411C6.91261 21.3996 8.64945 13.1977 10.7253 10.5162H12.0383ZM-16.531 27.9539C-12.5626 37.5831 -10.7532 43.2693 0.328533 51.0614L-0.527189 51.6606C-11.5282 45.4259 -14.7319 37.9888 -17.3657 28.355L-16.531 27.9539ZM-0.225871 18.1548C1.57657 31.8225 2.10279 39.6295 11.4925 54.5801L10.4935 54.8855C0.829879 41.8681 -0.701956 31.2435 -1.15851 18.2299L-0.225871 18.1548ZM-10.598 58.7545L-9.74324 57.7155C1.91969 61.3686 0.620554 68.9106 15.3101 76.5485L14.0825 77.2923C1.21992 71.9839 -1.78689 60.5985 -10.598 58.7545Z" fill="black" fill-opacity="0.2"/>
</g>
<path fill-rule="evenodd" clip-rule="evenodd" d="M-28.7476 192.31C-26.5587 222.185 114.454 310.141 115.277 312.609C115.643 313.706 101.012 348.377 71.385 416.623L83.7117 421.413C129.155 349.136 150.709 309.146 148.375 301.445C145.033 290.419 108.563 254.146 38.9646 192.628L-28.7476 192.31Z" fill="#B28B67"/>
<path fill-rule="evenodd" clip-rule="evenodd" d="M74.6287 401.211L94.754 408.537C137.191 360.655 153.825 321.148 150.792 301.019C148.77 287.6 112.426 251.388 41.7593 192.383L-30.191 192.383C-27.736 261.569 102.966 312.872 104.714 315.821C106.462 318.769 89.2576 347.645 74.6287 401.211Z" fill="#2F3676"/>
<path fill-rule="evenodd" clip-rule="evenodd" d="M66.8497 414.27C64.3335 417.212 62.7676 419.529 62.1519 421.221C61.4032 423.278 60.6533 426.404 59.9023 430.6C62.2887 431.469 83.7355 439.275 124.243 454.018C127.927 449.099 128.047 445.764 124.606 444.012C121.164 442.26 118.316 440.773 116.063 439.551L91.0102 415.334C90.5281 414.868 89.7596 414.881 89.2936 415.364C89.2857 415.372 89.2778 415.38 89.2701 415.389L85.6507 419.352C81.7495 419.694 78.7565 419.486 76.6716 418.727C74.9776 418.11 72.8873 416.575 70.4005 414.12L70.4005 414.12C69.4462 413.178 67.9089 413.188 66.9669 414.142C66.9263 414.183 66.8872 414.226 66.8497 414.27Z" fill="#E4E4E4"/>
<path fill-rule="evenodd" clip-rule="evenodd" d="M-12.5339 192.31L-75.3514 343.116L-137.091 470.611H-122.525L36.8424 192.31H-12.5339Z" fill="#997659"/>
<path fill-rule="evenodd" clip-rule="evenodd" d="M-131.516 444.125L-99.1493 450.195C-74.1234 413.402 30.611 262.54 42.0942 192.31H-29.9616C-68.3096 243.079 -107.661 406.724 -131.516 444.125Z" fill="#5C63AB"/>
<path fill-rule="evenodd" clip-rule="evenodd" d="M88.7541 67.8545L134.768 54.0416C143.352 47.3594 151.448 42.4737 159.058 39.3845C161.271 38.9679 164.934 39.2099 160.356 44.4035C155.778 49.5971 151.195 55.2659 152.503 57.4436C153.81 59.6213 158.573 57.9797 159.951 61.4293C160.87 63.729 152.979 65.3761 136.279 66.3706L100.502 87.4257L88.7541 67.8545ZM84.6881 148.98L123.411 177.416C133.914 180.25 142.688 183.775 149.735 187.993C151.399 189.51 153.411 192.582 146.508 192.051C139.605 191.52 132.32 191.272 131.367 193.627C130.415 195.981 134.592 198.797 132.667 201.974C131.383 204.092 125.319 198.781 114.474 186.042L76.1279 170.141L84.6881 148.98Z" fill="#B28B67"/>
<path fill-rule="evenodd" clip-rule="evenodd" d="M24.5409 72.402C45.6283 111.722 76.1214 141.863 120.328 173.196L103.59 192.069C54.231 173.726 28.1806 162.659 15.3879 125.51C12.1772 116.187 9.93318 86.4646 8.00811 70.8263L24.5409 72.402Z" fill="#2026A2"/>
<path fill-rule="evenodd" clip-rule="evenodd" d="M-34.4102 203.405H59.0648C37.8912 138.828 27.0749 94.5073 26.6159 70.4413C26.5925 69.2144 24.3266 67.0524 23.3241 67.3355C15.9929 69.406 8.148 68.6319 -0.210691 65.013C-22.3707 100.653 -30.034 144.533 -34.4102 203.405Z" fill="#F2F2F2"/>
<path fill-rule="evenodd" clip-rule="evenodd" d="M1.40101 58.9832C28.1952 59.2026 71.6669 64.0955 121.802 48L126.752 72.7326C88.86 97.1026 50.4917 115.981 16.8714 113.3C31.4708 175.924 30.7977 227.188 -1.43362 227.188C-16.8257 227.188 -33.4393 227.188 -51.2744 227.188C-59.1903 173.99 -38.3858 100.229 -19.0986 63.0247C-18.3621 61.604 -16.7939 58.9256 -13.1004 58.9256C-9.88208 58.9256 -5.05467 58.9256 1.3819 58.9256C1.38827 58.9448 1.39464 58.964 1.40101 58.9832Z" fill="#1F28CF"/>
<path fill-rule="evenodd" clip-rule="evenodd" d="M0 443L10 435C21 428 42 414 63 435C83 457 104 515 125 515C146 515 167 457 188 457C209 457 230 515 250 565C271 615 292 659 313 630C334 601 355 500 376 493C397 486 417 572 438 572C459 572 480 486 501 479C522 471 543 543 563 601C584 659 605 702 626 716C647 731 668 716 689 709C710 702 730 702 751 687C772 673 793 644 814 594C835 543 856 471 877 493C897 515 918 630 939 651C960 673 981 601 1002 565C1023 529 1043 529 1064 515C1085 500 1106 471 1127 457C1148 443 1169 443 1190 457C1210 471 1231 500 1252 515C1273 529 1294 529 1315 507C1336 486 1357 443 1377 414C1398 385 1419 371 1430 363L1440 356V745H1430C1419 745 1398 745 1377 745C1357 745 1336 745 1315 745C1294 745 1273 745 1252 745C1231 745 1210 745 1190 745C1169 745 1148 745 1127 745C1106 745 1085 745 1064 745C1043 745 1023 745 1002 745C981 745 960 745 939 745C918 745 897 745 877 745C856 745 835 745 814 745C793 745 772 745 751 745C730 745 710 745 689 745C668 745 647 745 626 745C605 745 584 745 563 745C543 745 522 745 501 745C480 745 459 745 438 745C417 745 397 745 376 745C355 745 334 745 313 745C292 745 271 745 250 745C230 745 209 745 188 745C167 745 146 745 125 745C104 745 83 745 63 745C42 745 21 745 10 745H0V443Z" fill="#606365"/>
</svg>
