<svg width="42" height="42" viewBox="0 0 42 42" fill="none" xmlns="http://www.w3.org/2000/svg">
<path d="M41.7437 39.2691L29.543 27.0684C31.8571 24.2115 33.25 20.5795 33.25 16.6251C33.25 7.45805 25.792 0 16.625 0C7.45797 0 0 7.45805 0 16.6251C0 25.7921 7.45805 33.2501 16.6251 33.2501C20.5795 33.2501 24.2115 31.8571 27.0684 29.543L39.2691 41.7437C39.6109 42.0854 40.1648 42.0854 40.5066 41.7437L41.7437 40.5065C42.0854 40.1648 42.0854 39.6108 41.7437 39.2691ZM16.6251 29.7501C9.38751 29.7501 3.50003 23.8626 3.50003 16.6251C3.50003 9.38751 9.38751 3.50003 16.6251 3.50003C23.8626 3.50003 29.7501 9.38751 29.7501 16.6251C29.7501 23.8626 23.8626 29.7501 16.6251 29.7501Z" fill="white"/>
</svg>
